<?xml version="1.0" encoding="UTF-8"?>
<svg version="1.1" xmlns="http://www.w3.org/2000/svg" width="512" height="512">
<path d="M0 0 C0.90143738 -0.01283524 1.80287476 -0.02567047 2.73162842 -0.03889465 C3.70867737 -0.04628159 4.68572632 -0.05366852 5.69238281 -0.0612793 C6.69634094 -0.06935104 7.70029907 -0.07742279 8.73468018 -0.08573914 C10.86314158 -0.09958646 12.99162525 -0.11030571 15.12011719 -0.11816406 C18.36859529 -0.13535562 21.61605019 -0.17923397 24.86425781 -0.22338867 C26.93195866 -0.23351739 28.99966816 -0.24203293 31.06738281 -0.2487793 C32.03633484 -0.26628738 33.00528687 -0.28379547 34.00360107 -0.30183411 C39.7483508 -0.28344701 43.10870867 0.29463474 47.64550781 4.17700195 C53.6772546 10.54384578 54.23739958 18.21491503 55.37207031 26.55981445 C55.60088394 28.19755325 55.60088394 28.19755325 55.83432007 29.86837769 C56.15461192 32.16928379 56.47215119 34.47057453 56.78710938 36.7722168 C57.26987757 40.29739992 57.76166797 43.82123558 58.25488281 47.3449707 C58.56530959 49.58317838 58.87522305 51.82145732 59.18457031 54.05981445 C59.33141266 55.11403595 59.478255 56.16825745 59.62954712 57.25442505 C59.763237 58.23579437 59.89692688 59.2171637 60.03466797 60.22827148 C60.21215073 61.52016891 60.21215073 61.52016891 60.39321899 62.83816528 C60.64550781 65.17700195 60.64550781 65.17700195 60.64550781 69.17700195 C61.39316406 69.30977539 62.14082031 69.44254883 62.91113281 69.5793457 C64.38839844 69.84424805 64.38839844 69.84424805 65.89550781 70.11450195 C67.35730469 70.37553711 67.35730469 70.37553711 68.84863281 70.6418457 C71.14404808 71.08105226 73.38300579 71.59866576 75.64550781 72.17700195 C83.96337078 62.02086519 92.09718574 51.75826292 100.06103516 41.32202148 C101.52065251 39.41478169 102.98853818 37.51415696 104.45800781 35.61450195 C104.90225098 35.03039551 105.34649414 34.44628906 105.80419922 33.84448242 C109.92713781 28.53691612 113.94021732 24.56866602 120.64550781 23.17700195 C129.42649004 22.83238592 135.7598074 26.44220062 143.14550781 30.80200195 C144.20898438 31.40657227 145.27246094 32.01114258 146.36816406 32.6340332 C167.92213421 45.03748351 167.92213421 45.03748351 170.64550781 54.73950195 C171.57141921 67.43982168 162.60190453 82.52214432 157.89550781 93.98950195 C157.09421858 95.95348748 156.29343336 97.91767873 155.49316406 99.88208008 C153.54974518 104.64944445 151.59953662 109.41397707 149.64550781 114.17700195 C153.02651162 118.31321279 156.31141315 121.99016764 160.64550781 125.17700195 C161.25636734 124.92866104 161.86722687 124.68032013 162.49659729 124.42445374 C168.8683639 121.83585302 175.24451297 119.25828507 181.62329102 116.68701172 C184.00170673 115.72660671 186.37899969 114.76341626 188.75512695 113.79736328 C192.17528949 112.40740808 195.59939542 111.02759658 199.02441406 109.6496582 C200.08197403 109.2173439 201.139534 108.7850296 202.22914124 108.33961487 C215.16613189 103.16306064 215.16613189 103.16306064 221.70800781 104.80200195 C222.62259766 105.00696289 222.62259766 105.00696289 223.55566406 105.21606445 C231.74868157 108.9833211 235.08107382 116.49479556 239.27050781 124.05200195 C239.93086545 125.22319616 240.59231633 126.39377466 241.25488281 127.5637207 C242.51322409 129.79256406 243.76509327 132.02507754 245.00952148 134.26171875 C246.31963261 136.59630119 247.66947111 138.89452231 249.04785156 141.1887207 C251.90682479 146.53618897 252.47078166 152.36691286 250.83300781 158.23950195 C246.82970657 167.11407683 236.58926786 172.80989021 228.97973633 178.43579102 C223.85378122 182.2327948 218.84690757 186.15520155 213.89550781 190.17700195 C212.89463135 190.98669434 212.89463135 190.98669434 211.87353516 191.81274414 C208.63053277 194.4614878 205.53798466 197.13844042 202.64550781 200.17700195 C202.97035156 201.31588867 202.97035156 201.31588867 203.30175781 202.4777832 C203.71941406 203.96858398 203.71941406 203.96858398 204.14550781 205.48950195 C204.56316406 206.96870117 204.56316406 206.96870117 204.98925781 208.4777832 C205.64550781 211.17700195 205.64550781 211.17700195 205.64550781 214.17700195 C207.23347168 214.34353271 207.23347168 214.34353271 208.85351562 214.51342773 C219.8549644 215.68875321 230.81577261 217.0722464 241.76367188 218.67163086 C243.53877912 218.92818161 245.31486553 219.17803487 247.09179688 219.42163086 C249.71100723 219.78104631 252.3266535 220.16035311 254.94238281 220.54418945 C255.72989929 220.64851288 256.51741577 220.7528363 257.32879639 220.86032104 C263.56188775 221.81229116 267.71141033 223.98153994 271.95800781 228.80200195 C274.23478129 232.0063498 274.77455083 233.66014121 274.82250977 237.53149414 C274.835345 238.43293152 274.84818024 239.3343689 274.86140442 240.26312256 C274.87248482 241.72869598 274.87248482 241.72869598 274.88378906 243.22387695 C274.89186081 244.22783508 274.89993256 245.23179321 274.9082489 246.26617432 C274.92209623 248.39463572 274.93281547 250.52311939 274.94067383 252.65161133 C274.95786539 255.90008943 275.00174373 259.14754433 275.04589844 262.39575195 C275.05602715 264.4634528 275.0645427 266.5311623 275.07128906 268.59887695 C275.08879715 269.56782898 275.10630524 270.53678101 275.12434387 271.53509521 C275.10595677 277.27984494 274.52787502 280.64020281 270.64550781 285.17700195 C265.00520076 290.52045074 258.60304675 291.49477013 251.18457031 292.46606445 C250.39400238 292.57421478 249.60343445 292.68236511 248.78890991 292.79379272 C246.28347529 293.13528093 243.77705109 293.46875931 241.27050781 293.80200195 C239.56340472 294.03324301 237.85637256 294.26500843 236.14941406 294.49731445 C231.9822416 295.06328034 227.81416326 295.62206912 223.64550781 296.17700195 C223.26023926 297.78768555 223.26023926 297.78768555 222.8671875 299.4309082 C222.51750969 300.86716874 222.16756027 302.30336316 221.81738281 303.73950195 C221.56577393 304.79621094 221.56577393 304.79621094 221.30908203 305.87426758 C219.73469751 312.29006931 217.41892567 318.17550758 214.64550781 324.17700195 C215.45375 324.5347168 215.45375 324.5347168 216.27832031 324.8996582 C221.17744077 327.543243 225.41454858 331.30171245 229.78857422 334.72875977 C231.67396742 336.1991979 233.57054456 337.65411764 235.46972656 339.10668945 C236.71602033 340.06736753 237.96211925 341.02829843 239.20800781 341.98950195 C239.79114746 342.43285889 240.37428711 342.87621582 240.97509766 343.33300781 C246.28321634 347.45767454 250.25344958 351.46981229 251.64550781 358.17700195 C251.99012385 366.95798418 248.38030914 373.29130155 244.02050781 380.67700195 C243.4159375 381.74047852 242.81136719 382.80395508 242.18847656 383.8996582 C229.78502625 405.45362836 229.78502625 405.45362836 220.08300781 408.17700195 C207.38268808 409.10291335 192.30036545 400.13339867 180.83300781 395.42700195 C178.86902228 394.62571272 176.90483103 393.8249275 174.94042969 393.0246582 C170.17306531 391.08123933 165.4085327 389.13103076 160.64550781 387.17700195 C156.50929697 390.55800576 152.83234212 393.84290729 149.64550781 398.17700195 C150.01801918 399.09329124 150.01801918 399.09329124 150.39805603 400.02809143 C152.98665675 406.39985804 155.56422469 412.77600711 158.13549805 419.15478516 C159.09590306 421.53320087 160.05909351 423.91049384 161.02514648 426.28662109 C162.41510169 429.70678363 163.79491319 433.13088956 165.17285156 436.5559082 C165.60516586 437.61346817 166.03748016 438.67102814 166.4828949 439.76063538 C171.65944913 452.69762603 171.65944913 452.69762603 170.02050781 459.23950195 C169.88386719 459.84922852 169.74722656 460.45895508 169.60644531 461.0871582 C165.83918866 469.28017571 158.32771421 472.61256796 150.77050781 476.80200195 C149.5993136 477.46235959 148.4287351 478.12381047 147.25878906 478.78637695 C145.0299457 480.04471823 142.79743223 481.29658741 140.56079102 482.54101562 C138.22620857 483.85112675 135.92798745 485.20096525 133.63378906 486.5793457 C128.24664512 489.45953116 122.41904491 490.00550874 116.52050781 488.30200195 C111.32026878 486.02230121 108.10548362 481.51488208 104.64550781 477.17700195 C103.64736962 475.9879366 102.64767945 474.80016981 101.64550781 473.61450195 C100.98550781 472.81012695 100.32550781 472.00575195 99.64550781 471.17700195 C98.90107422 472.24241211 98.90107422 472.24241211 98.14160156 473.3293457 C92.55373865 480.88939552 92.55373865 480.88939552 87.89550781 482.36450195 C84.64550781 482.17700195 84.64550781 482.17700195 82.71972656 481.42700195 C80.48130304 480.9189308 80.48130304 480.9189308 78.46191406 482.7590332 C77.718125 483.49508789 76.97433594 484.23114258 76.20800781 484.98950195 C73.14984412 487.99448019 70.73327033 489.81441445 66.64550781 491.17700195 C66.85175781 491.89887695 67.05800781 492.62075195 67.27050781 493.36450195 C67.71964102 496.73300104 67.18979789 498.17815118 65.64550781 501.17700195 C49.42683449 513.95319975 21.06216818 513.98506895 1.91894531 511.87670898 C-21.63064002 508.06350261 -44.26825983 494.80997018 -59.02636719 476.05200195 C-60.17365015 474.45354029 -61.27115762 472.81947695 -62.35449219 471.17700195 C-63.39664789 472.3640728 -64.43818312 473.55168836 -65.47949219 474.73950195 C-66.12273437 475.4665332 -66.76597656 476.19356445 -67.42871094 476.94262695 C-68.61405341 478.31791274 -69.77018189 479.71985637 -70.87402344 481.16137695 C-74.43426382 485.75143894 -77.61108555 488.05877855 -83.35449219 489.17700195 C-92.09994582 489.62908071 -98.51722871 485.88321082 -105.85449219 481.55200195 C-106.91796875 480.94743164 -107.98144531 480.34286133 -109.07714844 479.7199707 C-130.63111859 467.31652039 -130.63111859 467.31652039 -133.35449219 457.61450195 C-134.28040359 444.91418222 -125.3108889 429.83185959 -120.60449219 418.36450195 C-119.80320295 416.40051642 -119.00241774 414.43632518 -118.20214844 412.47192383 C-116.25872956 407.70455945 -114.308521 402.94002684 -112.35449219 398.17700195 C-115.73549599 394.04079112 -119.02039752 390.36383627 -123.35449219 387.17700195 C-123.96757233 387.42534286 -124.58065247 387.67368378 -125.21231079 387.92955017 C-131.60100018 390.51602922 -137.99308888 393.09396389 -144.38720703 395.66699219 C-146.77220251 396.6280251 -149.15632643 397.59122393 -151.53955078 398.55664062 C-154.96777452 399.94493548 -158.39907007 401.32537876 -161.83105469 402.7043457 C-162.89377594 403.13666 -163.95649719 403.5689743 -165.05142212 404.01438904 C-166.05200653 404.41472855 -167.05259094 404.81506805 -168.08349609 405.22753906 C-168.95841705 405.5806163 -169.83333801 405.93369354 -170.73477173 406.29747009 C-175.17976757 407.78981079 -179.24307469 408.53777598 -183.85449219 407.55200195 C-184.56605469 407.41536133 -185.27761719 407.2787207 -186.01074219 407.13793945 C-194.43864311 403.68250007 -197.77995558 395.8774322 -201.97949219 388.30200195 C-202.63984982 387.13080774 -203.30130071 385.96022924 -203.96386719 384.7902832 C-205.22220847 382.56143985 -206.47407765 380.32892637 -207.71850586 378.09228516 C-209.02861698 375.75770271 -210.37845548 373.45948159 -211.75683594 371.1652832 C-214.63702139 365.77813926 -215.18299897 359.95053905 -213.47949219 354.05200195 C-209.18714921 344.58249091 -197.41499923 338.31389701 -189.34277344 332.2277832 C-186.81068779 330.31742308 -184.36250921 328.35292985 -181.95996094 326.2824707 C-179.35449219 324.17700195 -179.35449219 324.17700195 -177.35449219 324.17700195 C-177.7528125 323.32879883 -178.15113281 322.4805957 -178.56152344 321.60668945 C-179.09132812 320.43364258 -179.62113281 319.2605957 -180.16699219 318.05200195 C-180.6890625 316.91504883 -181.21113281 315.7780957 -181.74902344 314.60668945 C-184.13748002 308.71545645 -185.14034842 302.39206716 -186.35449219 296.17700195 C-187.53479004 296.01619141 -188.71508789 295.85538086 -189.93115234 295.68969727 C-194.32794918 295.08647421 -198.72166083 294.46288967 -203.11474609 293.83325195 C-205.0130589 293.56405198 -206.91215437 293.30031038 -208.81201172 293.04223633 C-211.54979079 292.66935914 -214.28411319 292.27665338 -217.01855469 291.88012695 C-217.86253815 291.76952942 -218.70652161 291.65893188 -219.57608032 291.54498291 C-226.02282632 290.57985697 -230.26260987 288.55157107 -234.66699219 283.55200195 C-236.94376566 280.3476541 -237.48353521 278.69386269 -237.53149414 274.82250977 C-237.55074699 273.4703537 -237.55074699 273.4703537 -237.57038879 272.09088135 C-237.57777573 271.1138324 -237.58516266 270.13678345 -237.59277344 269.13012695 C-237.60084518 268.12616882 -237.60891693 267.12221069 -237.61723328 266.08782959 C-237.6310806 263.95936819 -237.64179985 261.83088452 -237.6496582 259.70239258 C-237.66684976 256.45391447 -237.71072811 253.20645958 -237.75488281 249.95825195 C-237.76501153 247.89055111 -237.77352707 245.8228416 -237.78027344 243.75512695 C-237.79778152 242.78617493 -237.81528961 241.8172229 -237.83332825 240.81890869 C-237.81493553 235.07240203 -237.23332774 231.7180341 -233.35449219 227.17700195 C-227.01258235 221.00649509 -218.487419 220.62203515 -210.09277344 219.45043945 C-208.49045113 219.22162582 -208.49045113 219.22162582 -206.85575867 218.9881897 C-204.60786531 218.66825511 -202.35963169 218.35070323 -200.11108398 218.03540039 C-196.66726753 217.5520406 -193.22470362 217.06042612 -189.78222656 216.56762695 C-187.59414455 216.2572441 -185.4059957 215.94733195 -183.21777344 215.63793945 C-182.18856277 215.49109711 -181.15935211 215.34425476 -180.09895325 215.19296265 C-178.66177193 214.99242783 -178.66177193 214.99242783 -177.19555664 214.7878418 C-176.35507278 214.66951996 -175.51458893 214.55119812 -174.64863586 214.42929077 C-172.35449219 214.17700195 -172.35449219 214.17700195 -168.35449219 214.17700195 C-168.22171875 213.4293457 -168.08894531 212.68168945 -167.95214844 211.91137695 C-167.77554688 210.9265332 -167.59894531 209.94168945 -167.41699219 208.92700195 C-167.24296875 207.9524707 -167.06894531 206.97793945 -166.88964844 205.97387695 C-166.45044188 203.67846168 -165.93282838 201.43950398 -165.35449219 199.17700195 C-175.51062895 190.85913898 -185.77323122 182.72532402 -196.20947266 174.76147461 C-198.11671245 173.30185726 -200.01733718 171.83397158 -201.91699219 170.36450195 C-202.50109863 169.92025879 -203.08520508 169.47601563 -203.68701172 169.01831055 C-208.99457802 164.89537195 -212.96282812 160.88229244 -214.35449219 154.17700195 C-214.69910823 145.39601973 -211.08929352 139.06270236 -206.72949219 131.67700195 C-206.12492187 130.61352539 -205.52035156 129.55004883 -204.89746094 128.4543457 C-192.49401063 106.90037555 -192.49401063 106.90037555 -182.79199219 104.17700195 C-170.09167246 103.25109055 -155.00934982 112.22060524 -143.54199219 116.92700195 C-141.57800666 117.72829119 -139.61381541 118.5290764 -137.64941406 119.3293457 C-132.88204969 121.27276458 -128.11751707 123.22297314 -123.35449219 125.17700195 C-119.21828135 121.79599815 -115.5413265 118.51109662 -112.35449219 114.17700195 C-112.6028331 113.56614243 -112.85117401 112.9552829 -113.10704041 112.32591248 C-115.69564112 105.95414587 -118.27320907 99.5779968 -120.84448242 93.19921875 C-121.80488743 90.82080303 -122.76807788 88.44351007 -123.73413086 86.06738281 C-125.12408606 82.64722027 -126.50389756 79.22311435 -127.88183594 75.7980957 C-128.31415024 74.74053574 -128.74646454 73.68297577 -129.19187927 72.59336853 C-134.3684335 59.65637787 -134.3684335 59.65637787 -132.72949219 53.11450195 C-132.59285156 52.50477539 -132.45621094 51.89504883 -132.31542969 51.2668457 C-128.54817304 43.07382819 -121.03669858 39.74143594 -113.47949219 35.55200195 C-112.30829798 34.89164432 -111.13771948 34.23019343 -109.96777344 33.56762695 C-107.73893008 32.30928567 -105.5064166 31.0574165 -103.26977539 29.81298828 C-100.93519295 28.50287716 -98.63697183 27.15303866 -96.34277344 25.7746582 C-90.95562949 22.89447275 -85.12802928 22.34849517 -79.22949219 24.05200195 C-70.57628437 27.97433074 -65.07954454 38.07504775 -59.50439453 45.43408203 C-55.51872926 50.6901133 -51.44806617 55.86717485 -47.29199219 60.98950195 C-46.75614502 61.65280518 -46.22029785 62.3161084 -45.66821289 62.99951172 C-43.03688157 66.2271053 -40.37638975 69.30003953 -37.35449219 72.17700195 C-36.59523437 71.96043945 -35.83597656 71.74387695 -35.05371094 71.52075195 C-34.05984375 71.24231445 -33.06597656 70.96387695 -32.04199219 70.67700195 C-31.05585938 70.39856445 -30.06972656 70.12012695 -29.05371094 69.83325195 C-26.35449219 69.17700195 -26.35449219 69.17700195 -23.35449219 69.17700195 C-23.24347168 68.11835937 -23.13245117 67.0597168 -23.01806641 65.96899414 C-21.84274093 54.96754537 -20.45924774 44.00673715 -18.85986328 33.05883789 C-18.60331253 31.28373065 -18.35345927 29.50764423 -18.10986328 27.73071289 C-17.75044783 25.11150254 -17.37114104 22.49585627 -16.98730469 19.88012695 C-16.88298126 19.09261047 -16.77865784 18.30509399 -16.6711731 17.49371338 C-15.71920298 11.26062202 -13.5499542 7.11109944 -8.72949219 2.86450195 C-5.52514434 0.58772848 -3.87135293 0.04795893 0 0 Z M-34.35449219 144.67700195 C-35.78100098 145.3582312 -35.78100098 145.3582312 -37.23632812 146.05322266 C-45.19168273 149.93898171 -52.02476522 154.31773768 -58.65527344 160.2277832 C-62.72633142 163.73634613 -64.98068795 165.57510543 -70.47949219 165.17700195 C-71.72472656 165.08225586 -71.72472656 165.08225586 -72.99511719 164.9855957 C-76.79767454 165.29408132 -78.48306637 167.36364838 -80.87402344 170.16918945 C-83.07796581 173.15817726 -84.86586048 175.74667671 -86.35449219 179.17700195 C-85.59624015 181.27688426 -85.59624015 181.27688426 -84.35449219 183.17700195 C-84.64953178 188.8955634 -87.29277885 193.07067276 -90.04199219 197.92700195 C-93.58521261 204.41456186 -96.59977115 210.83956995 -98.91699219 217.86450195 C-99.15571045 218.58154297 -99.39442871 219.29858398 -99.64038086 220.03735352 C-101.16122457 224.88366218 -101.69820833 228.92673111 -102.35449219 234.17700195 C-75.62449219 234.17700195 -48.89449219 234.17700195 -21.35449219 234.17700195 C-21.02449219 224.27700195 -20.69449219 214.37700195 -20.35449219 204.17700195 C-17.38449219 200.54700195 -14.41449219 196.91700195 -11.35449219 193.17700195 C-11.0062165 190.07362236 -11.0062165 190.07362236 -13.28588867 188.1875 C-14.11161377 187.38352783 -14.93733887 186.57955566 -15.78808594 185.7512207 C-22.51583936 177.74990079 -21.57926458 168.9969041 -21.41699219 158.98950195 C-21.42007232 157.16071448 -21.42720106 155.33192913 -21.43847656 153.50317383 C-21.45716503 149.0597653 -21.42106107 144.6199176 -21.35449219 140.17700195 C-26.1758671 140.17700195 -30.05735267 142.62380049 -34.35449219 144.67700195 Z M58.64550781 140.17700195 C58.64550781 171.19700195 58.64550781 202.21700195 58.64550781 234.17700195 C68.21550781 234.50700195 77.78550781 234.83700195 87.64550781 235.17700195 C91.64550781 239.17700195 91.64550781 239.17700195 92.64550781 241.17700195 C95.74918279 241.32215872 98.85198808 241.41101048 101.95800781 241.48950195 C102.83908203 241.53139648 103.72015625 241.57329102 104.62792969 241.61645508 C107.06352466 241.66275917 109.25657433 241.66009867 111.64550781 241.17700195 C113.71680504 238.85265589 113.71680504 238.85265589 114.64550781 236.17700195 C117.16227895 234.91861639 119.05844069 234.96881223 121.87207031 234.8605957 C122.90332031 234.81870117 123.93457031 234.77680664 124.99707031 234.73364258 C126.07730469 234.69432617 127.15753906 234.65500977 128.27050781 234.61450195 C129.35847656 234.57131836 130.44644531 234.52813477 131.56738281 234.48364258 C134.25995951 234.37735666 136.95263034 234.27532138 139.64550781 234.17700195 C137.49285372 212.6262739 126.44415298 192.49722695 112.64550781 176.17700195 C112.01773438 175.41000977 111.38996094 174.64301758 110.74316406 173.8527832 C98.4175468 159.17942932 79.84447414 146.40552519 61.64550781 140.17700195 C60.65550781 140.17700195 59.66550781 140.17700195 58.64550781 140.17700195 Z " fill="#010101" transform="translate(237.3544921875,-0.177001953125)"/>
<path d="M0 0 C1.51815699 0.00015911 3.0363194 0.00585313 4.55444336 0.01586914 C5.35208603 0.01728409 6.1497287 0.01869904 6.97154236 0.02015686 C9.52916146 0.02577223 12.08669429 0.03832727 14.64428711 0.05102539 C16.37410356 0.05603841 18.10392137 0.06060166 19.83374023 0.06469727 C24.08312264 0.07574664 28.33244023 0.09302153 32.58178711 0.11352539 C34.02629946 4.87232321 35.05852604 9.48794733 35.80053711 14.41821289 C35.95455994 15.43403694 35.95455994 15.43403694 36.11169434 16.47038269 C36.32822759 17.90538803 36.54250032 19.34073608 36.75463867 20.77639771 C37.08495729 23.00996164 37.42278743 25.24230058 37.76147461 27.47460938 C38.89707346 35.02817034 39.87910498 42.56884399 40.58178711 50.17602539 C41.22456521 56.00908651 42.21500627 60.93856697 46.58178711 65.11352539 C50.53129677 67.93258506 54.66847734 69.17876236 59.33178711 70.30102539 C60.04189941 70.4724707 60.75201172 70.64391602 61.48364258 70.82055664 C67.88364774 72.29444405 73.51694251 73.5846508 79.70678711 70.61352539 C86.39691561 64.79602234 91.54900347 57.64447874 96.89819336 50.62133789 C99.65361857 47.00769879 102.45675738 43.43280912 105.26928711 39.86352539 C109.39241273 34.62813152 113.49912175 29.38058173 117.58178711 24.11352539 C124.29739903 24.87924711 129.36459439 28.04475333 135.08789062 31.37792969 C136.89787261 32.42810575 138.72025833 33.45391796 140.54467773 34.47875977 C142.25880859 35.46779297 142.25880859 35.46779297 144.00756836 36.47680664 C145.57631714 37.37846558 145.57631714 37.37846558 147.17675781 38.29833984 C149.58178711 40.11352539 149.58178711 40.11352539 150.5546875 41.98193359 C150.59258596 44.96293742 149.70563438 47.09268001 148.58959961 49.85571289 C147.90861206 51.56319702 147.90861206 51.56319702 147.21386719 53.30517578 C146.71653076 54.52068115 146.21919434 55.73618652 145.70678711 56.98852539 C145.20262898 58.24905355 144.69962777 59.51004501 144.19775391 60.77148438 C141.82711091 66.70583534 139.38684197 72.6061514 136.84350586 78.46899414 C136.42891113 79.43788574 136.01431641 80.40677734 135.5871582 81.4050293 C134.81768361 83.19249075 134.03140305 84.97285514 133.22485352 86.74389648 C130.59031696 92.87013359 129.57528961 98.45788813 130.58178711 105.11352539 C133.06133508 110.21308833 137.18448379 113.98901645 141.20678711 117.92602539 C141.79202148 118.51061523 142.37725586 119.09520508 142.98022461 119.69750977 C146.92993808 123.60645785 148.85811158 125.27748543 154.37475586 125.48461914 C161.53689821 125.40888476 167.37186776 122.93350053 173.89428711 120.17602539 C175.10673096 119.68328125 176.3191748 119.19053711 177.56835938 118.68286133 C183.44362426 116.29471149 189.2818014 113.81918442 195.12084961 111.34399414 C196.12075928 110.92432373 197.12066895 110.50465332 198.15087891 110.07226562 C200.02010476 109.2845784 201.88392677 108.4839029 203.74121094 107.66845703 C204.57418701 107.31517334 205.40716309 106.96188965 206.26538086 106.59790039 C206.98266357 106.285625 207.69994629 105.97334961 208.43896484 105.65161133 C211.26079659 104.94301874 212.84958677 105.09975042 215.58178711 106.11352539 C217.29516602 108.2590332 217.29516602 108.2590332 218.80834961 111.06665039 C219.64366211 112.58452148 219.64366211 112.58452148 220.49584961 114.13305664 C221.06045898 115.19911133 221.62506836 116.26516602 222.20678711 117.36352539 C223.34464286 119.452157 224.48265827 121.54070164 225.62084961 123.62915039 C226.11794434 124.56017578 226.61503906 125.49120117 227.12719727 126.45043945 C228.54005778 129.14718287 228.54005778 129.14718287 230.3293457 131.64379883 C231.58178711 134.11352539 231.58178711 134.11352539 231.49072266 136.72827148 C230.4238974 139.52786396 229.427943 140.50200936 227.03881836 142.27758789 C226.30147461 142.83687988 225.56413086 143.39617187 224.80444336 143.97241211 C223.61141602 144.84663818 223.61141602 144.84663818 222.39428711 145.73852539 C220.74425276 146.9829263 219.09451642 148.22772247 217.44506836 149.47290039 C216.62216309 150.08713867 215.79925781 150.70137695 214.95141602 151.33422852 C211.62103464 153.83493112 208.34798932 156.40488865 205.08178711 158.98852539 C201.95397124 161.45731358 198.8261489 163.92492401 195.67163086 166.35961914 C187.74594546 171.95814721 187.74594546 171.95814721 183.11303711 180.07446289 C182.70593707 186.03847847 184.31162152 191.71075432 185.83178711 197.42602539 C186.13802002 198.59149902 186.13802002 198.59149902 186.45043945 199.78051758 C188.06451036 205.41575683 189.89625821 209.45741419 195.07592773 212.65161133 C199.64188079 214.5555756 203.98930273 215.0815291 208.87866211 215.64868164 C209.86747375 215.77286972 210.8562854 215.8970578 211.87506104 216.02500916 C215.02612014 216.41907006 218.17873354 216.79828572 221.33178711 217.17602539 C224.47018115 217.55986992 227.60813604 217.94691269 230.7456665 218.3377533 C232.69297238 218.57950206 234.64082542 218.81689976 236.58929443 219.04908752 C253.59999531 221.13173359 253.59999531 221.13173359 255.58178711 223.11352539 C255.67033872 225.77978569 255.69703384 228.41999653 255.67944336 231.08618164 C255.67732094 232.28264565 255.67732094 232.28264565 255.67515564 233.50328064 C255.66954027 236.06089974 255.65698523 238.61843257 255.64428711 241.17602539 C255.63927409 242.90584184 255.63471084 244.63565965 255.63061523 246.36547852 C255.61956586 250.61486092 255.60229097 254.86417851 255.58178711 259.11352539 C251.57969099 260.53707228 247.7499884 261.53333993 243.55444336 262.18383789 C242.43231445 262.35786133 241.31018555 262.53188477 240.15405273 262.71118164 C238.41671875 262.9722168 238.41671875 262.9722168 236.64428711 263.23852539 C234.91275391 263.51116211 234.91275391 263.51116211 233.14624023 263.78930664 C227.57029962 264.6402534 222.22379033 265.35990108 216.58178711 265.11352539 C216.29045898 264.29110352 215.99913086 263.46868164 215.69897461 262.62133789 C209.42370974 245.53209457 200.88734483 233.34544676 184.14428711 225.30102539 C173.45265271 220.80963159 163.04847764 219.56780685 151.58178711 219.11352539 C151.43668701 218.50057617 151.29158691 217.88762695 151.14208984 217.25610352 C148.03348808 204.30339432 144.66444868 191.99792239 138.58178711 180.11352539 C138.24276367 179.44772461 137.90374023 178.78192383 137.55444336 178.09594727 C132.50140464 168.33229186 126.66205817 159.51701215 119.58178711 151.11352539 C119.15671875 150.60337891 118.73165039 150.09323242 118.29370117 149.56762695 C102.80876244 131.19309846 81.26501691 117.11356063 58.26928711 110.11352539 C53.94174014 108.64293682 53.94174014 108.64293682 52.37866211 106.34399414 C51.79776398 104.96304085 51.23434527 103.57462437 50.68725586 102.17993164 C48.35360766 97.81774119 43.67506781 95.64624282 39.58178711 93.11352539 C38.24725871 92.25209271 36.91400618 91.38868143 35.58178711 90.52368164 C34.16604972 89.6146806 32.74938194 88.707127 31.33178711 87.80102539 C30.65857422 87.36806152 29.98536133 86.93509766 29.29174805 86.48901367 C23.25109541 82.70128857 17.8714809 80.35941914 10.58178711 81.11352539 C3.82332755 84.17056697 -2.39885942 88.04084426 -8.66821289 91.98852539 C-9.64790039 92.58793945 -10.62758789 93.18735352 -11.63696289 93.80493164 C-18.00990799 97.81849406 -21.98453933 100.8125047 -24.41821289 108.11352539 C-26.71114486 109.09490027 -28.93002653 109.90339148 -31.29321289 110.67602539 C-48.74905271 116.83223739 -66.82823827 126.29435207 -79.41821289 140.11352539 C-79.85064675 143.20233868 -79.76358085 145.1707642 -78.69555664 148.08618164 C-78.41821289 150.11352539 -78.41821289 150.11352539 -79.67602539 151.78930664 C-80.29219727 152.32942383 -80.90836914 152.86954102 -81.54321289 153.42602539 C-84.18103991 155.82499406 -86.01966465 157.96605064 -87.79321289 161.05102539 C-88.96508789 162.81274414 -88.96508789 162.81274414 -90.41821289 164.11352539 C-92.84714324 164.47958759 -94.89972669 164.38213452 -97.33227539 164.06665039 C-99.46928054 163.89846111 -99.46928054 163.89846111 -100.88867188 165.33520508 C-103.88663152 168.82078178 -105.74655677 173.05332927 -107.85571289 177.11352539 C-108.57210937 178.45737305 -108.57210937 178.45737305 -109.30297852 179.82836914 C-114.34086904 189.46186625 -117.65768965 199.24577518 -120.16821289 209.80102539 C-120.38864258 210.70530273 -120.60907227 211.60958008 -120.83618164 212.54125977 C-121.36907085 214.73073935 -121.89635397 216.92139578 -122.41821289 219.11352539 C-123.43399414 219.1509082 -124.44977539 219.18829102 -125.49633789 219.22680664 C-143.18652904 220.00824034 -159.30120453 224.36986642 -172.41821289 237.11352539 C-179.6247995 245.48415231 -184.03588338 254.6770582 -187.41821289 265.11352539 C-196.27161898 264.76150129 -204.92720887 263.50435096 -213.66821289 262.11352539 C-214.7999292 261.9353125 -215.93164551 261.75709961 -217.09765625 261.57348633 C-218.15734619 261.40107422 -219.21703613 261.22866211 -220.30883789 261.05102539 C-221.26822266 260.89504883 -222.22760742 260.73907227 -223.21606445 260.57836914 C-225.41821289 260.11352539 -225.41821289 260.11352539 -226.41821289 259.11352539 C-226.5067645 256.44726509 -226.53345962 253.80705425 -226.51586914 251.14086914 C-226.51445419 250.34322647 -226.51303925 249.5455838 -226.51158142 248.72377014 C-226.50596606 246.16615104 -226.49341101 243.60861821 -226.48071289 241.05102539 C-226.47569987 239.32120894 -226.47113662 237.59139113 -226.46704102 235.86157227 C-226.45599164 231.61218986 -226.43871675 227.36287227 -226.41821289 223.11352539 C-221.43871014 221.65645498 -216.5432689 220.5214017 -211.41821289 219.73852539 C-210.63148193 219.6133252 -209.84475098 219.488125 -209.03417969 219.35913086 C-203.55692709 218.51394873 -198.06914776 217.83022783 -192.56274414 217.20727539 C-190.4779286 216.96403209 -188.39325559 216.71959332 -186.30859375 216.47503662 C-184.93573323 216.31877312 -183.56200798 216.16990903 -182.1875 216.02886963 C-170.84701972 214.98038863 -170.84701972 214.98038863 -161.41821289 209.11352539 C-156.58366985 201.69447822 -153.2892713 189.41062834 -153.87475586 180.47851562 C-155.57966691 173.05916552 -164.2056969 167.62338785 -169.98071289 163.30102539 C-171.57473962 162.08524229 -173.1684864 160.86909208 -174.76196289 159.65258789 C-175.54700195 159.05736328 -176.33204102 158.46213867 -177.14086914 157.84887695 C-180.44963937 155.32757133 -183.71649966 152.75458617 -186.98071289 150.17602539 C-192.11170375 146.13600203 -197.25664763 142.11442122 -202.41821289 138.11352539 C-201.64851104 131.41248106 -198.52206424 126.33022265 -195.20874023 120.60742188 C-194.16686969 118.79869354 -193.15361887 116.97579123 -192.14086914 115.15063477 C-191.48473633 114.00788086 -190.82860352 112.86512695 -190.15258789 111.68774414 C-189.55671875 110.64191162 -188.96084961 109.5960791 -188.34692383 108.51855469 C-186.41821289 106.11352539 -186.41821289 106.11352539 -184.06787109 105.12475586 C-180.66403659 105.11032884 -178.41610137 106.01325811 -175.28930664 107.35961914 C-173.50339111 108.1161377 -173.50339111 108.1161377 -171.68139648 108.88793945 C-171.056745 109.15964966 -170.43209351 109.43135986 -169.78851318 109.71130371 C-167.840567 110.55760565 -165.88593625 111.38619245 -163.9284668 112.21020508 C-159.03559996 114.27326254 -154.15414536 116.36214357 -149.28100586 118.47143555 C-135.83923243 125.00093546 -135.83923243 125.00093546 -121.41821289 125.11352539 C-116.68235041 122.381788 -112.97268345 118.97534978 -109.16821289 115.11352539 C-108.63969727 114.59274414 -108.11118164 114.07196289 -107.56665039 113.53540039 C-103.25068056 109.19752208 -101.13425116 106.22306158 -101.03564453 100.06005859 C-101.16302916 93.73477326 -103.04906565 88.71950425 -105.53930664 82.96899414 C-105.95865982 81.95557449 -106.378013 80.94215485 -106.81007385 79.89802551 C-108.1405319 76.69110884 -109.4966189 73.49589792 -110.85571289 70.30102539 C-112.20656495 67.08658031 -113.55181841 63.86994105 -114.89064026 60.65046692 C-115.72176968 58.6559694 -116.56057178 56.66464687 -117.4080658 54.67704773 C-119.3077739 50.15644719 -120.92592412 46.04411312 -121.41821289 41.11352539 C-120.33024414 40.47286133 -119.24227539 39.83219727 -118.12133789 39.17211914 C-117.41525391 38.75615479 -116.70916992 38.34019043 -115.98168945 37.91162109 C-114.43271229 37.00064075 -112.88256975 36.0916392 -111.33129883 35.18457031 C-107.79298316 33.11369279 -104.26599707 31.03506215 -100.79321289 28.85571289 C-99.76196289 28.21891602 -98.73071289 27.58211914 -97.66821289 26.92602539 C-96.76586914 26.3549707 -95.86352539 25.78391602 -94.93383789 25.19555664 C-91.83851889 23.86418496 -90.60088917 24.12501782 -87.41821289 25.11352539 C-85.73999023 26.65722656 -85.73999023 26.65722656 -84.25415039 28.65649414 C-83.4152124 29.76250977 -83.4152124 29.76250977 -82.55932617 30.89086914 C-81.6851001 32.08389648 -81.6851001 32.08389648 -80.79321289 33.30102539 C-79.54881198 34.95105974 -78.30401582 36.60079608 -77.05883789 38.25024414 C-76.44459961 39.07314941 -75.83036133 39.89605469 -75.19750977 40.74389648 C-72.69680716 44.07427786 -70.12684963 47.34732318 -67.54321289 50.61352539 C-65.0744247 53.74134126 -62.60681427 56.8691636 -60.17211914 60.02368164 C-54.57359107 67.94936704 -54.57359107 67.94936704 -46.45727539 72.58227539 C-40.49325982 72.98937543 -34.82098396 71.38369098 -29.10571289 69.86352539 C-28.32873047 69.65937012 -27.55174805 69.45521484 -26.7512207 69.24487305 C-21.06501832 67.61620505 -17.00065246 65.78266462 -13.86425781 60.49243164 C-12.21261294 56.63310951 -11.60598753 52.97753151 -11.13696289 48.84790039 C-11.03734253 48.05563049 -10.93772217 47.2633606 -10.83508301 46.44708252 C-10.51906762 43.92038403 -10.21784127 41.39221468 -9.91821289 38.86352539 C-9.51735179 35.56597332 -9.11030001 32.26922383 -8.69946289 28.97290039 C-8.59867432 28.16260376 -8.49788574 27.35230713 -8.39404297 26.51745605 C-7.64814635 20.63994259 -6.78350549 14.78811601 -5.82446289 8.94165039 C-5.63696472 7.78098053 -5.63696472 7.78098053 -5.44567871 6.59686279 C-4.3571778 0.14471021 -4.3571778 0.14471021 0 0 Z " fill="#9EAAB8" transform="translate(241.418212890625,14.886474609375)"/>
<path d="M0 0 C6.27 0 12.54 0 19 0 C19.99 1.98 20.98 3.96 22 6 C23.01261525 7.23474535 23.01261525 7.23474535 25.1006012 7.11784363 C26.0271904 7.11529068 26.9537796 7.11273773 27.90844727 7.11010742 C29.48258141 7.11097603 29.48258141 7.11097603 31.08851624 7.11186218 C32.81007179 7.10869743 32.81007179 7.10869743 34.56640625 7.10546875 C36.99675356 7.11894519 39.42709266 7.13397198 41.85742188 7.15039062 C45.68835475 7.17305598 49.51837571 7.18764508 53.34936523 7.17504883 C88.05385586 7.09128171 88.05385586 7.09128171 101.984375 20.75390625 C105.49343781 24.66419911 108.38951195 28.38404044 110.6875 33.125 C111.31205078 34.39730469 111.31205078 34.39730469 111.94921875 35.6953125 C114.20152431 40.63531354 114.21730359 44.7954859 114.25 50.125 C114.2809375 51.35089844 114.2809375 51.35089844 114.3125 52.6015625 C114.38541668 64.12239786 109.5591194 74.2412434 101.875 82.75 C97.32437188 87.03711736 91.70330975 89.5728998 86 92 C85.20401461 92.35036851 84.40802921 92.70073702 83.58792305 93.06172276 C78.27481565 94.45115271 73.0984266 94.28538206 67.62838745 94.27415466 C66.36991001 94.27939134 65.11143257 94.28462802 63.81481946 94.29002339 C60.3284351 94.3041793 56.84213999 94.30586714 53.35573101 94.30542648 C49.59277192 94.30707684 45.82984937 94.32014755 42.06690979 94.33161926 C33.84151559 94.35445249 25.61614721 94.36238823 17.39072561 94.36744571 C12.25173274 94.37070501 7.11274734 94.37722894 1.9737587 94.3844471 C-12.26310294 94.40401169 -26.49995763 94.42041644 -40.73683357 94.42332363 C-41.64759598 94.4235112 -42.55835838 94.42369877 -43.49671965 94.42389202 C-45.34295297 94.42425827 -47.18918628 94.42462197 -49.0354196 94.42498314 C-50.4100744 94.42525735 -50.4100744 94.42525735 -51.8125 94.42553711 C-52.73005923 94.42571766 -53.64761846 94.42589821 -54.59298252 94.42608423 C-69.45433697 94.42962442 -84.3155464 94.45663772 -99.17685057 94.494035 C-114.44583378 94.53214967 -129.7147451 94.55148134 -144.98377693 94.55178314 C-153.55228739 94.55236704 -162.12062488 94.56081515 -170.68909073 94.58978081 C-177.98663849 94.61433714 -185.2839502 94.62154908 -192.58152814 94.60653328 C-196.30161873 94.59938137 -200.02124362 94.60014656 -203.74128151 94.62294388 C-207.78335558 94.64747624 -211.82437774 94.63285014 -215.8664856 94.61473083 C-217.0297418 94.6279308 -218.19299801 94.64113077 -219.39150441 94.65473074 C-232.48794017 94.52110277 -242.34205022 89.23833609 -251.7109375 80.3828125 C-260.9932637 70.53506541 -262.46497784 58.84614452 -262.27734375 45.98046875 C-261.92701075 36.60165359 -258.0204559 29.98256266 -252 23 C-251.49855469 22.39285156 -250.99710938 21.78570312 -250.48046875 21.16015625 C-243.98448048 13.93712306 -233.63370043 8.67604245 -223.9117341 7.81506264 C-221.53517518 7.74171557 -219.16606411 7.73041161 -216.78839111 7.74171448 C-215.42889709 7.73620092 -215.42889709 7.73620092 -214.04193854 7.73057598 C-211.01650792 7.72062585 -207.99126216 7.72474077 -204.96582031 7.72875977 C-202.79234116 7.72437119 -200.61886369 7.71906856 -198.44538879 7.71292114 C-193.77134422 7.70143347 -189.0973449 7.69596265 -184.42328644 7.69503975 C-177.03717423 7.69309864 -169.65115576 7.67504505 -162.26507568 7.65428162 C-143.92513711 7.60510689 -125.58516972 7.57401644 -107.24517822 7.55297852 C-92.98135935 7.53647568 -78.71762103 7.51373205 -64.45385623 7.46995777 C-57.1061746 7.44812792 -49.75864582 7.44012842 -42.41093397 7.44235051 C-37.84923988 7.44068883 -33.28764647 7.42667234 -28.72598839 7.40913773 C-26.60512458 7.4035187 -24.48424006 7.4030708 -22.36337471 7.40807533 C-19.47657546 7.41417511 -16.59041754 7.40206095 -13.70367432 7.38526917 C-12.85728811 7.39148098 -12.01090189 7.3976928 -11.13886762 7.40409285 C-6.98448982 7.49447774 -6.98448982 7.49447774 -3.38743567 5.72630161 C-1.69814614 3.74918066 -1.69814614 3.74918066 0 0 Z " fill="#D1ECFA" transform="translate(330,241)"/>
<path d="M0 0 C1.06091858 -0.0137265 2.12183716 -0.027453 3.21490479 -0.04159546 C6.71559464 -0.07814364 10.21449266 -0.07045603 13.71533203 -0.05908203 C16.15382469 -0.06820585 18.5923122 -0.07881705 21.03079224 -0.09085083 C26.14020688 -0.10871567 31.24899638 -0.10386545 36.35839844 -0.08398438 C42.89818386 -0.06101422 49.43580793 -0.10140736 55.97530937 -0.15981865 C61.01125744 -0.19655953 66.04668847 -0.1959546 71.08273697 -0.18454361 C73.49323685 -0.18423732 75.90377193 -0.19631529 78.31414413 -0.22112656 C81.6899633 -0.25097769 85.06180313 -0.2295824 88.4375 -0.1953125 C89.42789276 -0.21464844 90.41828552 -0.23398437 91.43869019 -0.25390625 C97.02199523 -0.13555734 99.86049583 0.72464373 103.88943481 4.70675659 C105.07012752 6.04994592 106.22697122 7.41484912 107.34814453 8.80810547 C108.46189453 10.10748047 108.46189453 10.10748047 109.59814453 11.43310547 C125.03224167 32.37938016 130.58613306 55.91430841 126.72314453 81.74560547 C123.83433313 94.35132797 117.79987358 108.18756476 108.91064453 117.62060547 C106.49714359 120.24592964 106.35749192 120.72798498 105.91064453 124.55810547 C106.24562376 127.81193509 106.24562376 127.81193509 107.34814453 130.80810547 C105.74615566 132.26883078 104.14147337 133.72660263 102.53564453 135.18310547 C101.64232422 135.99521484 100.74900391 136.80732422 99.82861328 137.64404297 C97.34814453 139.80810547 97.34814453 139.80810547 94.34814453 141.80810547 C92.06417421 141.46204936 90.41405416 140.84106028 88.34814453 139.80810547 C84.16368463 139.38111976 81.2409762 139.69814567 77.53564453 141.55810547 C58.4747578 150.57338974 35.07564174 150.17149502 15.53564453 143.24560547 C-5.74253414 135.21149325 -22.35067848 119.26660787 -31.92529297 98.75341797 C-40.68353709 79.17784091 -41.72244159 55.57822099 -34.46435547 35.30810547 C-30.1385344 24.72122758 -24.24632215 15.35365489 -16.65185547 6.80810547 C-15.83844696 5.78627167 -15.02503845 4.76443787 -14.1869812 3.7116394 C-10.00811042 -0.41031584 -5.60502682 -0.0507458 0 0 Z " fill="#F3E063" transform="translate(211.65185546875,349.19189453125)"/>
<path d="M0 0 C8.14571086 7.17485578 11.12809123 21.61141783 12 32 C12.96046984 54.08867195 10.3615927 76.58277766 -4.77734375 94.05078125 C-5.32519531 94.63214844 -5.87304688 95.21351563 -6.4375 95.8125 C-8.85100095 98.43782417 -8.99065261 98.91987951 -9.4375 102.75 C-9.10252077 106.00382962 -9.10252077 106.00382962 -8 109 C-9.60198888 110.46072532 -11.20667116 111.91849716 -12.8125 113.375 C-13.70582031 114.18710937 -14.59914063 114.99921875 -15.51953125 115.8359375 C-18 118 -18 118 -21 120 C-23.28397032 119.65394389 -24.93409037 119.03295481 -27 118 C-31.1844599 117.5730143 -34.10716833 117.89004021 -37.8125 119.75 C-56.87338674 128.76528427 -80.27250279 128.36338955 -99.8125 121.4375 C-119.1039031 114.15354493 -136.5088925 99.66593307 -145.22265625 80.80078125 C-145.47917969 80.20652344 -145.73570312 79.61226563 -146 79 C-141.91955878 80.31764248 -137.96698242 81.81326357 -134 83.4375 C-121.16412803 88.35429164 -108.59605404 89.55296421 -95 90 C-95.05800781 89.39414062 -95.11601562 88.78828125 -95.17578125 88.1640625 C-95.60149114 80.25802164 -93.66120916 74.13081794 -88.35546875 68.14453125 C-83.57089667 63.77037393 -78.64929921 61.25638379 -72.125 60.625 C-63.92569112 61.00562556 -57.60858094 64.07755687 -52 70 C-50.65065321 71.65372875 -49.31412573 73.31814712 -48 75 C-28.12006784 62.40829174 -14.23524031 46.1419197 -6 24 C-5.61070312 22.97003906 -5.22140625 21.94007813 -4.8203125 20.87890625 C-2.37585407 14.01836416 -0.97163426 7.21054897 0 0 Z " fill="#F0D131" transform="translate(327,371)"/>
<path d="M0 0 C3.48205085 2.06343754 6.52557771 4.48203799 9.63671875 7.0625 C10.96006512 8.14169562 12.28430206 9.21980002 13.609375 10.296875 C14.27598145 10.84021484 14.94258789 11.38355469 15.62939453 11.94335938 C18.73837967 14.45111776 21.90164341 16.88599501 25.07421875 19.3125 C25.63560547 19.74240234 26.19699219 20.17230469 26.77539062 20.61523438 C28.06152121 21.59893728 29.34895645 22.58093413 30.63671875 23.5625 C30.10273 28.15939119 28.90812102 31.32699892 26.546875 35.29296875 C25.92748047 36.34291016 25.30808594 37.39285156 24.66992188 38.47460938 C23.69442383 40.09592773 23.69442383 40.09592773 22.69921875 41.75 C22.05275391 42.84248047 21.40628906 43.93496094 20.74023438 45.06054688 C18.43659634 48.94300226 16.14116381 52.80583241 13.63671875 56.5625 C8.71590234 55.94877214 4.40785916 54.45221452 -0.1484375 52.578125 C-0.88597763 52.28065369 -1.62351776 51.98318237 -2.38340759 51.67669678 C-4.73322183 50.72766569 -7.07957495 49.7704114 -9.42578125 48.8125 C-10.97437252 48.18431164 -12.52319885 47.55670239 -14.07226562 46.9296875 C-14.83076309 46.62266907 -15.58926056 46.31565063 -16.3707428 45.99932861 C-19.34234358 44.79747774 -22.31433718 43.5966191 -25.28756714 42.39880371 C-26.63220219 41.85705123 -27.97640795 41.31423154 -29.32009888 40.7701416 C-31.08421998 40.05833834 -32.85255121 39.35699564 -34.62109375 38.65625 C-35.59836426 38.26630859 -36.57563477 37.87636719 -37.58251953 37.47460938 C-42.24917092 35.94391494 -46.56455314 35.40054382 -51.36328125 36.5625 C-54.56851814 38.42628589 -56.85441027 40.85807064 -59.36328125 43.5625 C-61.17476443 45.33437349 -62.98729271 47.10517903 -64.80078125 48.875 C-68.77674275 52.83882116 -70.52289854 54.72316284 -70.734375 60.35546875 C-70.65864062 67.5176111 -68.18325639 73.35258065 -65.42578125 79.875 C-64.93303711 81.08744385 -64.44029297 82.2998877 -63.93261719 83.54907227 C-61.54446735 89.42433715 -59.06894028 95.26251429 -56.59375 101.1015625 C-56.17407959 102.10147217 -55.75440918 103.10138184 -55.32202148 104.1315918 C-54.53433426 106.00081765 -53.73365876 107.86463966 -52.91821289 109.72192383 C-52.5649292 110.5548999 -52.21164551 111.38787598 -51.84765625 112.24609375 C-51.53538086 112.96337646 -51.22310547 113.68065918 -50.90136719 114.41967773 C-50.1927746 117.24150948 -50.34950628 118.83029966 -51.36328125 121.5625 C-53.50878906 123.27587891 -53.50878906 123.27587891 -56.31640625 124.7890625 C-57.32832031 125.3459375 -58.34023438 125.9028125 -59.3828125 126.4765625 C-60.44886719 127.04117188 -61.51492188 127.60578125 -62.61328125 128.1875 C-64.70191286 129.32535575 -66.7904575 130.46337116 -68.87890625 131.6015625 C-70.27544434 132.34720459 -70.27544434 132.34720459 -71.70019531 133.10791016 C-73.51462291 134.09895889 -75.29975428 135.14514148 -77.05517578 136.23730469 C-79.36328125 137.5625 -79.36328125 137.5625 -81.77734375 137.7265625 C-85.92676879 135.85869443 -88.07740129 132.53449677 -90.73828125 128.9375 C-91.29644531 128.23753906 -91.85460937 127.53757812 -92.4296875 126.81640625 C-95.11784927 123.238828 -96.3697497 121.43851329 -96.3359375 116.859375 C-95.4837642 113.97088396 -94.5802444 111.21692449 -93.42578125 108.4375 C-84.44140734 84.13068475 -89.01795368 57.86074005 -98.36328125 34.5625 C-98.75386719 33.58410156 -99.14445312 32.60570312 -99.546875 31.59765625 C-99.81628906 30.92605469 -100.08570313 30.25445312 -100.36328125 29.5625 C-99.73498413 28.98749756 -99.73498413 28.98749756 -99.09399414 28.40087891 C-97.20180883 26.66609104 -95.31376107 24.92686333 -93.42578125 23.1875 C-92.76642578 22.58421875 -92.10707031 21.9809375 -91.42773438 21.359375 C-90.79931641 20.77929688 -90.17089844 20.19921875 -89.5234375 19.6015625 C-88.94215088 19.06740723 -88.36086426 18.53325195 -87.76196289 17.98291016 C-86.25038061 16.5941208 -86.25038061 16.5941208 -85.36328125 14.5625 C-84.36421753 14.56369339 -84.36421753 14.56369339 -83.3449707 14.56491089 C-76.33499011 14.56737205 -69.32609873 14.52767964 -62.31640625 14.46484375 C-59.70968702 14.44681308 -57.10287326 14.43909142 -54.49609375 14.44238281 C-35.36660668 14.45705266 -19.693063 13.9436646 -4.6953125 0.90625 C-2.36328125 -0.4375 -2.36328125 -0.4375 0 0 Z " fill="#8B99A5" transform="translate(442.36328125,335.4375)"/>
<path d="M0 0 C4.65892461 2.17267157 8.83839748 5.11124635 13.125 7.9296875 C22.41385353 13.27148335 31.62487195 14.54882512 42.17578125 14.328125 C44.65689908 14.32312514 47.13801939 14.31925179 49.61914062 14.31640625 C53.48164841 14.28930439 57.34318832 14.24951884 61.20532227 14.18896484 C64.96701724 14.13803787 68.72630114 14.13628478 72.48828125 14.140625 C73.63943924 14.10866028 74.79059723 14.07669556 75.97663879 14.04376221 C83.83907585 14.09104097 83.83907585 14.09104097 87.24461365 16.75744629 C88.99912959 18.75994579 90.50010004 20.80425667 92 23 C93.44359719 24.37176491 94.91424857 25.71726196 96.4375 27 C97.11683594 27.5775 97.79617187 28.155 98.49609375 28.75 C98.99238281 29.1625 99.48867187 29.575 100 30 C99.59587891 31.00740234 99.59587891 31.00740234 99.18359375 32.03515625 C98.79300781 33.01355469 98.40242187 33.99195313 98 35 C97.30583984 36.73056641 97.30583984 36.73056641 96.59765625 38.49609375 C87.06031141 62.70935934 85.01908949 89.36471613 95.07421875 113.80859375 C96.16549037 117.57048789 96.23539816 119.27965975 95 123 C93.181996 125.80307541 91.0961263 128.32905447 88.9375 130.875 C88.36966797 131.56335938 87.80183594 132.25171875 87.21679688 132.9609375 C85.82135457 134.64953996 84.4158407 136.32849928 83 138 C78.40310881 137.46601125 75.23550108 136.27140227 71.26953125 133.91015625 C70.21958984 133.29076172 69.16964844 132.67136719 68.08789062 132.03320312 C67.00701172 131.38287109 65.92613281 130.73253906 64.8125 130.0625 C63.72001953 129.41603516 62.62753906 128.76957031 61.50195312 128.10351562 C57.61949774 125.79987759 53.75666759 123.50444506 50 121 C50.60370709 114.98873933 52.95287233 109.81994848 55.25390625 104.30078125 C56.11730314 102.18325515 56.9799085 100.06540617 57.84179688 97.94726562 C59.19851916 94.63058825 60.56079619 91.31659539 61.93725586 88.00805664 C63.26852082 84.79994987 64.57526518 81.58269441 65.87890625 78.36328125 C66.49760338 76.90176384 66.49760338 76.90176384 67.12879944 75.41072083 C69.6901899 69.02162412 71.23643364 62.9005626 70 56 C68.06612805 52.82446694 65.71746848 50.51911312 63 48 C61.84757812 46.80117188 61.84757812 46.80117188 60.671875 45.578125 C54.21833382 38.73857312 54.21833382 38.73857312 45.40234375 36.42578125 C36.54458781 36.59779078 28.57109179 40.75615519 20.5625 44.1875 C18.93238528 44.86962085 17.30152895 45.5499722 15.66992188 46.22851562 C6.97163716 49.85277712 6.97163716 49.85277712 -1.65673828 53.63916016 C-2.70974121 54.10499512 -3.76274414 54.57083008 -4.84765625 55.05078125 C-5.73590088 55.45594971 -6.62414551 55.86111816 -7.53930664 56.27856445 C-10.56954323 57.16698088 -12.06214836 57.18118882 -15 56 C-16.82104492 53.63916016 -16.82104492 53.63916016 -18.48046875 50.5390625 C-19.08697266 49.42789063 -19.69347656 48.31671875 -20.31835938 47.171875 C-20.94192858 45.98985874 -21.5649701 44.80756396 -22.1875 43.625 C-22.82066371 42.44965647 -23.45541328 41.27516577 -24.09179688 40.1015625 C-25.25849189 37.94536038 -26.41770851 35.78508386 -27.56713867 33.61962891 C-29.01232458 30.88685552 -29.01232458 30.88685552 -31 28 C-30.8213485 25.02344971 -30.45940642 23.49863359 -28.42456055 21.29003906 C-27.75207275 20.78698242 -27.07958496 20.28392578 -26.38671875 19.765625 C-25.63825684 19.19537598 -24.88979492 18.62512695 -24.11865234 18.03759766 C-23.31637207 17.44769043 -22.5140918 16.8577832 -21.6875 16.25 C-20.87748535 15.63817871 -20.0674707 15.02635742 -19.23291016 14.39599609 C-16.83074534 12.58520664 -14.41623315 10.79195054 -12 9 C-10.71110849 8.03014719 -9.42323232 7.05894245 -8.13671875 6.0859375 C-5.43408579 4.04424277 -2.72121438 2.01690007 0 0 Z " fill="#9DAAB7" transform="translate(70,335)"/>
<path d="M0 0 C2.465238 1.34843393 4.91119907 2.6949784 7.31738281 4.14672852 C8.19910156 4.67717773 9.08082031 5.20762695 9.98925781 5.75415039 C11.35050781 6.58076172 11.35050781 6.58076172 12.73925781 7.42407227 C13.66222656 7.97901367 14.58519531 8.53395508 15.53613281 9.10571289 C22.34184942 13.21416387 22.34184942 13.21416387 23.48925781 14.36157227 C23.58476479 15.77836137 23.61114264 17.19988468 23.60951233 18.61988831 C23.61088699 19.53840576 23.61226166 20.45692322 23.61367798 21.40327454 C23.60828506 22.92672737 23.60828506 22.92672737 23.6027832 24.48095703 C23.60292923 25.54424225 23.60307526 26.60752747 23.60322571 27.70303345 C23.60252606 31.23636884 23.59473124 34.76965227 23.58691406 38.30297852 C23.58505007 40.74535595 23.58362608 43.18773375 23.58262634 45.63011169 C23.57879971 52.07291691 23.56896818 58.51569975 23.55792236 64.95849609 C23.54591754 72.68104337 23.5413067 80.40359811 23.53546906 88.12615204 C23.5257565 99.8713077 23.50660095 111.61641422 23.48925781 123.36157227 C6.98925781 123.36157227 -9.51074219 123.36157227 -26.51074219 123.36157227 C-26.51074219 99.36157227 -26.51074219 99.36157227 -21.69824219 92.61157227 C-19.99373802 91.16532631 -18.2670286 89.74447495 -16.51074219 88.36157227 C-13.96291599 85.80829034 -13.54316474 84.60446193 -13.05761719 80.96704102 C-13.60596614 76.60388514 -14.87132299 74.9409801 -17.76074219 71.67407227 C-18.54964844 70.76270508 -19.33855469 69.85133789 -20.15136719 68.91235352 C-22.33216327 66.38666307 -22.33216327 66.38666307 -24.59204102 64.85644531 C-29.09184219 59.00538688 -27.71486774 49.3081017 -27.85620117 42.21118164 C-27.91721033 39.99090154 -28.0193195 37.77134449 -28.16381836 35.55493164 C-29.32361931 17.67077427 -29.32361931 17.67077427 -24.65216064 12.17504883 C-20.1024258 8.38217265 -15.06861178 5.7177016 -9.66189575 3.34716797 C-7.32254915 2.34928529 -7.32254915 2.34928529 -4.71557617 0.44555664 C-2.51074219 -0.63842773 -2.51074219 -0.63842773 0 0 Z " fill="#F4E164" transform="translate(257.5107421875,110.638427734375)"/>
<path d="M0 0 C1.71337891 2.14550781 1.71337891 2.14550781 3.2265625 4.953125 C3.7834375 5.96503906 4.3403125 6.97695312 4.9140625 8.01953125 C5.47867188 9.08558594 6.04328125 10.15164062 6.625 11.25 C7.76285575 13.33863161 8.90087116 15.42717625 10.0390625 17.515625 C10.53615723 18.44665039 11.03325195 19.37767578 11.54541016 20.33691406 C12.95827067 23.03365748 12.95827067 23.03365748 14.74755859 25.53027344 C16 28 16 28 15.90893555 30.61474609 C14.84211029 33.41433857 13.84615589 34.38848397 11.45703125 36.1640625 C10.7196875 36.72335449 9.98234375 37.28264648 9.22265625 37.85888672 C8.42730469 38.4417041 7.63195312 39.02452148 6.8125 39.625 C5.16246565 40.86940091 3.51272932 42.11419707 1.86328125 43.359375 C1.04037598 43.97361328 0.2174707 44.58785156 -0.63037109 45.22070312 C-3.96075247 47.72140573 -7.23379779 50.29136326 -10.5 52.875 C-13.62781587 55.34378819 -16.75563821 57.81139862 -19.91015625 60.24609375 C-27.83584165 65.84462182 -27.83584165 65.84462182 -32.46875 73.9609375 C-32.87585004 79.92495307 -31.27016559 85.59722893 -29.75 91.3125 C-29.54584473 92.08948242 -29.34168945 92.86646484 -29.13134766 93.66699219 C-27.51727675 99.30223144 -25.6855289 103.3438888 -20.50585938 106.53808594 C-15.93990631 108.44205021 -11.59248438 108.96800371 -6.703125 109.53515625 C-5.71431335 109.65934433 -4.72550171 109.78353241 -3.70672607 109.91148376 C-0.55566697 110.30554467 2.59694643 110.68476033 5.75 111.0625 C8.88839404 111.44634453 12.02634893 111.8333873 15.16387939 112.22422791 C17.11118527 112.46597667 19.05903831 112.70337436 21.00750732 112.93556213 C38.0182082 115.0182082 38.0182082 115.0182082 40 117 C40.08855161 119.6662603 40.11524673 122.30647114 40.09765625 124.97265625 C40.0962413 125.77029892 40.09482635 126.56794159 40.09336853 127.38975525 C40.08775316 129.94737435 40.07519812 132.50490718 40.0625 135.0625 C40.05748698 136.79231645 40.05292373 138.52213426 40.04882812 140.25195312 C40.03777875 144.50133553 40.02050386 148.75065312 40 153 C35.99790388 154.42354689 32.16820129 155.41981454 27.97265625 156.0703125 C26.85052734 156.24433594 25.72839844 156.41835938 24.57226562 156.59765625 C23.41404297 156.77167969 22.25582031 156.94570313 21.0625 157.125 C19.3309668 157.39763672 19.3309668 157.39763672 17.56445312 157.67578125 C11.98851251 158.52672801 6.64200322 159.24637569 1 159 C0.56300781 157.76636719 0.56300781 157.76636719 0.1171875 156.5078125 C-6.23034208 139.22177284 -14.87557043 126.96534824 -31.9375 119.0625 C-34.93312025 117.7610155 -37.809435 116.70325679 -41 116 C-40.87882812 115.08863281 -40.75765625 114.17726563 -40.6328125 113.23828125 C-40.06237522 108.82836231 -39.52066538 104.41604611 -39 100 C-38.90396484 99.1867627 -38.80792969 98.37352539 -38.70898438 97.53564453 C-35.77037504 71.94275608 -36.46229883 46.64247504 -41.4140625 21.3359375 C-42 18 -42 18 -42 14 C-36.82898237 11.8287587 -31.65124237 9.6747661 -26.46655273 7.53637695 C-24.70418701 6.80669172 -22.94374218 6.07234884 -21.18530273 5.33325195 C-18.65580239 4.27101896 -16.11984272 3.2257867 -13.58203125 2.18359375 C-12.40674614 1.68369179 -12.40674614 1.68369179 -11.2077179 1.1736908 C-3.87087005 -1.80297262 -3.87087005 -1.80297262 0 0 Z " fill="#8B9AA6" transform="translate(457,121)"/>
<path d="M0 0 C1.20836014 -0.01248528 1.20836014 -0.01248528 2.44113159 -0.02522278 C5.09784823 -0.04926875 7.75431897 -0.05808902 10.41113281 -0.06469727 C12.26572745 -0.07366896 14.12032136 -0.0827909 15.97491455 -0.09205627 C19.86187496 -0.10853504 23.74874935 -0.11624414 27.63574219 -0.11914062 C32.59998233 -0.12451779 37.56340621 -0.162175 42.52741623 -0.20788479 C46.35889587 -0.23773044 50.19018092 -0.24486584 54.02176666 -0.24586678 C55.85090109 -0.25005555 57.68003683 -0.26243561 59.50905609 -0.28338432 C78.05574254 -0.47887092 78.05574254 -0.47887092 84.86425781 5.30639648 C86.98535156 7.40405273 86.98535156 7.40405273 88.30175781 9.36889648 C88.75421875 10.01987305 89.20667969 10.67084961 89.67285156 11.34155273 C93.15895707 17.09076936 93.59972714 21.59637389 92.86425781 28.30639648 C91.19950819 34.16451544 88.53342529 38.33760413 83.86425781 42.30639648 C83.22488281 42.86327148 82.58550781 43.42014648 81.92675781 43.99389648 C76.88385609 47.20301576 71.74108298 47.60740746 65.90625 47.61279297 C65.13139755 47.62111649 64.3565451 47.62944 63.55821228 47.63801575 C61.00913389 47.66201264 58.46031201 47.67087582 55.91113281 47.67749023 C54.12762378 47.6864655 52.34411548 47.6955875 50.56060791 47.70484924 C46.82505469 47.72131457 43.08959081 47.72903468 39.35400391 47.73193359 C34.58829397 47.73731009 29.82343456 47.77497018 25.05796432 47.82067776 C21.37399295 47.85055486 17.69022361 47.85765948 14.00614166 47.85865974 C12.2504004 47.86284212 10.49465743 47.87519602 8.73903656 47.89617729 C-9.67236763 48.09867366 -9.67236763 48.09867366 -17.13574219 42.30639648 C-23.41789517 35.73165158 -25.70788508 29.18746974 -25.51074219 20.11889648 C-24.55919679 12.98230601 -20.3807777 7.96914994 -14.97949219 3.49780273 C-10.14138313 0.37148226 -5.64331668 0.00497906 0 0 Z " fill="#030201" transform="translate(222.1357421875,367.693603515625)"/>
<path d="M0 0 C6.20888913 3.77012706 9.62683531 9.21802268 12 16 C13.27795144 22.5601507 11.26301503 29.41865534 7.74609375 34.984375 C3.39804712 40.52902302 -2.15010989 43.54372415 -9 45 C-16.11937181 45.73648674 -21.05097822 43.96933059 -27 40 C-31.87470802 35.59671436 -34.62923727 31.15148322 -35.40625 24.546875 C-35.58290532 17.39233457 -35.56010225 11.7130514 -30.921875 5.87109375 C-21.75859048 -3.05007146 -11.71073782 -5.5494127 0 0 Z " fill="#040401" transform="translate(268,435)"/>
<path d="M0 0 C0.33 0 0.66 0 1 0 C1.04898438 1.22074219 1.09796875 2.44148438 1.1484375 3.69921875 C1.74987928 17.48881726 2.76283069 29.89668419 8.07421875 42.80859375 C9.16549037 46.57048789 9.23539816 48.27965975 8 52 C6.181996 54.80307541 4.0961263 57.32905447 1.9375 59.875 C1.36966797 60.56335938 0.80183594 61.25171875 0.21679688 61.9609375 C-1.17864543 63.64953996 -2.5841593 65.32849928 -4 67 C-8.59689119 66.46601125 -11.76449892 65.27140227 -15.73046875 62.91015625 C-16.78041016 62.29076172 -17.83035156 61.67136719 -18.91210938 61.03320312 C-19.99298828 60.38287109 -21.07386719 59.73253906 -22.1875 59.0625 C-23.27998047 58.41603516 -24.37246094 57.76957031 -25.49804688 57.10351562 C-29.38050226 54.79987759 -33.24333241 52.50444506 -37 50 C-36.3736556 44.8547754 -34.78780144 40.51082797 -32.83984375 35.7578125 C-32.53051407 34.98944061 -32.22118439 34.22106873 -31.90248108 33.42941284 C-30.91982998 30.9922694 -29.92881046 28.55863229 -28.9375 26.125 C-28.26702133 24.4663708 -27.59709351 22.80751881 -26.92773438 21.1484375 C-25.29152095 17.09635184 -23.64779724 13.04738811 -22 9 C-20.5728986 9.15460236 -19.14592035 9.31034173 -17.71899414 9.46655273 C-16.92433243 9.55315659 -16.12967072 9.63976044 -15.31092834 9.72898865 C-10.50977471 10.29203819 -5.76241134 11.1788946 -1 12 C-0.67 8.04 -0.34 4.08 0 0 Z " fill="#8B99A5" transform="translate(157,406)"/>
<path d="M0 0 C1.13021576 -0.0131424 1.13021576 -0.0131424 2.28326416 -0.02655029 C4.76495569 -0.04849233 7.24485402 -0.03401173 9.7265625 -0.01708984 C11.45622091 -0.02045951 13.18587702 -0.02531339 14.91552734 -0.03158569 C18.53701364 -0.03894992 22.15788247 -0.02826648 25.77929688 -0.00488281 C30.41674955 0.02360527 35.05275542 0.0071988 39.69015503 -0.02274513 C43.2607713 -0.0408306 46.83104568 -0.03505448 50.40167236 -0.02210617 C52.11126884 -0.01877558 53.82089656 -0.02284706 55.53045654 -0.03450394 C57.92217977 -0.04723405 60.31157482 -0.02780947 62.703125 0 C63.406651 -0.01012115 64.110177 -0.02024231 64.83502197 -0.03067017 C68.66402635 0.05163103 70.26532428 0.57802196 73.29443359 2.99990845 C75.3515625 5.64697266 75.3515625 5.64697266 75.9140625 8.64697266 C75.22798593 12.3060477 73.92421936 13.99864941 71.3515625 16.64697266 C68.39458418 18.12546182 65.37968136 17.82887905 62.13549805 17.85571289 C61.02056976 17.87038857 61.02056976 17.87038857 59.88311768 17.88536072 C57.41819047 17.91532616 54.95331754 17.93670285 52.48828125 17.95556641 C51.22613265 17.96542415 51.22613265 17.96542415 49.9384861 17.97548103 C45.48480536 18.00807932 41.0311486 18.03252927 36.57739258 18.05200195 C32.89018998 18.06982042 29.20375141 18.10464734 25.5168457 18.15454102 C21.06648534 18.21469829 16.61683381 18.24547122 12.1660862 18.25517464 C10.47036304 18.26373811 8.77465926 18.28257844 7.07916832 18.31191826 C4.70387507 18.35080925 2.33134626 18.35187232 -0.04418945 18.34399414 C-0.74307785 18.36399475 -1.44196625 18.38399536 -2.16203308 18.40460205 C-4.91367108 18.36368605 -7.03841088 18.14595789 -9.2069912 16.372118 C-11.41904969 13.83948046 -12.59875059 11.8904385 -13.2734375 8.58447266 C-11.75055754 1.42693687 -6.59064043 -0.09481511 0 0 Z " fill="#E7A660" transform="translate(224.6484375,382.35302734375)"/>
<path d="M0 0 C2.80740885 2.24592708 4.61164156 3.89467213 5.8125 7.3125 C5.874375 7.869375 5.93625 8.42625 6 9 C6.66 8.67 7.32 8.34 8 8 C12.09236475 7.45435137 13.53575256 7.64676826 16.875 10.1875 C19 13 19 13 19.625 15.4375 C18.70276807 19.21865092 16.63879869 21.16329141 14 24 C14.825 24.721875 15.65 25.44375 16.5 26.1875 C19 29 19 29 19.625 31.5 C18.69783903 35.20864386 17.0099077 36.70985284 14 39 C9.85775694 39.57991403 8.51824511 39.34549674 5 37 C4.9175 38.093125 4.835 39.18625 4.75 40.3125 C4 44 4 44 2.3125 45.9375 C-0.73602877 47.33817538 -2.67926952 47.4842732 -6 47 C-8.375 45.375 -8.375 45.375 -10 43 C-10.25 39.75 -10.25 39.75 -10 37 C-10.53625 37.33 -11.0725 37.66 -11.625 38 C-14.67193922 39.28292178 -16.72032701 39.40995912 -20 39 C-22.375 37.4375 -22.375 37.4375 -24 35 C-24.5625 31.5625 -24.5625 31.5625 -24 28 C-21.5 25.0625 -21.5 25.0625 -19 23 C-19.825 22.29875 -20.65 21.5975 -21.5 20.875 C-24 18 -24 18 -24.5625 14.9375 C-23.86463014 11.29306849 -23.05623277 10.09110663 -20 8 C-16.03414842 7.50426855 -13.40424088 7.90508254 -10 10 C-10.0825 9.0925 -10.165 8.185 -10.25 7.25 C-10 4 -10 4 -8.375 1.625 C-5.24988831 -0.51323431 -3.71837535 -0.6829669 0 0 Z " fill="#040404" transform="translate(380,269)"/>
<path d="M0 0 C3.625 0.375 3.625 0.375 6.0625 2 C8.02144605 4.977598 7.94285906 6.87855037 7.625 10.375 C8.615 9.715 9.605 9.055 10.625 8.375 C14.53554241 7.94839537 16.74530578 7.78853719 20.0625 10 C22.12291771 13.13183492 22.3017545 14.69044773 21.625 18.375 C19.125 21.25 19.125 21.25 16.625 23.375 C17.45 24.055625 18.275 24.73625 19.125 25.4375 C21.625 28.375 21.625 28.375 22.25 31.9375 C21.625 35.375 21.625 35.375 19.5625 37.875 C15.77518014 39.80895057 13.69375564 39.37299667 9.625 38.375 C8.965 38.045 8.305 37.715 7.625 37.375 C7.728125 38.2825 7.83125 39.19 7.9375 40.125 C7.625 43.375 7.625 43.375 5.5625 45.8125 C1.71203161 47.86062148 -0.23435777 47.60185696 -4.375 46.375 C-6.87146958 44.12012425 -7.33361614 42.98196324 -7.5625 39.625 C-7.500625 38.8825 -7.43875 38.14 -7.375 37.375 C-7.890625 37.725625 -8.40625 38.07625 -8.9375 38.4375 C-12.43326706 39.78202579 -14.78514435 39.28878144 -18.375 38.375 C-20.375 36.75 -20.375 36.75 -21.375 34.375 C-21.30130834 30.24826713 -21.00161572 28.11554585 -18.3125 24.9375 C-17.3534375 24.1640625 -17.3534375 24.1640625 -16.375 23.375 C-17.220625 22.694375 -18.06625 22.01375 -18.9375 21.3125 C-21.375 18.375 -21.375 18.375 -21.375 14.75 C-19.91209199 9.81268546 -19.91209199 9.81268546 -17.375 8.375 C-11.23653846 7.94423077 -11.23653846 7.94423077 -8.375 9.375 C-7.92125 8.26125 -7.4675 7.1475 -7 6 C-4.53629032 0.50403226 -4.53629032 0.50403226 0 0 Z " fill="#030404" transform="translate(134.375,268.625)"/>
<path d="M0 0 C2.4375 1.625 2.4375 1.625 4 4 C4.25 7.25 4.25 7.25 4 10 C4.99 9.34 5.98 8.68 7 8 C10.91054241 7.57339537 13.12030578 7.41353719 16.4375 9.625 C18.51114192 12.77693571 18.66859841 14.28556438 18 18 C16.51218453 20.26518619 14.88393594 22.02186726 13 24 C13.825 24.53625 14.65 25.0725 15.5 25.625 C18 28 18 28 18.625 30.9375 C17.77688975 35.09324021 16.45625074 36.57327076 13 39 C9.56472756 38.88355009 7.07491161 38.53745581 4 37 C3.9175 38.093125 3.835 39.18625 3.75 40.3125 C3 44 3 44 1.375 46 C-2.11581787 47.46981805 -4.39148956 46.98413921 -8 46 C-10.49646958 43.74512425 -10.95861614 42.60696324 -11.1875 39.25 C-11.125625 38.5075 -11.06375 37.765 -11 37 C-11.515625 37.350625 -12.03125 37.70125 -12.5625 38.0625 C-16.05826706 39.40702579 -18.41014435 38.91378144 -22 38 C-24 36.375 -24 36.375 -25 34 C-24.92630834 29.87326713 -24.62661572 27.74054585 -21.9375 24.5625 C-20.9784375 23.7890625 -20.9784375 23.7890625 -20 23 C-20.845625 22.319375 -21.69125 21.63875 -22.5625 20.9375 C-25 18 -25 18 -25 14.375 C-23.53709199 9.43768546 -23.53709199 9.43768546 -21 8 C-14.86153846 7.56923077 -14.86153846 7.56923077 -12 9 C-11.731875 8.071875 -11.46375 7.14375 -11.1875 6.1875 C-8.89970124 0.04656649 -6.59088638 -0.8094071 0 0 Z " fill="#030304" transform="translate(320,269)"/>
<path d="M0 0 C2.8942612 2.05644875 3.81588125 3.3248979 4.75 6.75 C4.87375 7.86375 4.87375 7.86375 5 9 C5.66 8.67 6.32 8.34 7 8 C11.03191305 7.46241159 12.5619036 7.6924004 15.9375 10.0625 C18 13 18 13 18.0625 16.5625 C16.94760655 20.16950823 15.90087001 21.6605887 13 24 C14.2684375 25.0209375 14.2684375 25.0209375 15.5625 26.0625 C18 29 18 29 18.125 32.625 C17 36 17 36 14.8125 38 C11.40689986 39.21088005 9.46068604 38.92284961 6 38 C5.34 37.67 4.68 37.34 4 37 C3.9175 38.093125 3.835 39.18625 3.75 40.3125 C3 44 3 44 1.3125 45.9375 C-1.76819895 47.35295627 -3.64720251 47.55879958 -7 47 C-9.77871234 44.44065969 -10.91313862 42.97719051 -11.25 39.1875 C-11.12625 38.1046875 -11.12625 38.1046875 -11 37 C-11.515625 37.350625 -12.03125 37.70125 -12.5625 38.0625 C-16.05826706 39.40702579 -18.41014435 38.91378144 -22 38 C-24.55078958 35.77834456 -24.93332671 34.39170557 -25.5 31.0625 C-24.84071734 27.02439369 -23.05642079 25.59795767 -20 23 C-20.825 22.29875 -21.65 21.5975 -22.5 20.875 C-25 18 -25 18 -25.5625 14.9375 C-24.86463014 11.29306849 -24.05623277 10.09110663 -21 8 C-17.03414842 7.50426855 -14.40424088 7.90508254 -11 10 C-11.0825 9.0925 -11.165 8.185 -11.25 7.25 C-11 4 -11 4 -9.4375 1.625 C-6.06489221 -0.62340519 -3.97487617 -0.56783945 0 0 Z " fill="#030303" transform="translate(199,269)"/>
<path d="M0 0 C2.375 1.0625 2.375 1.0625 4 3 C4.25 6.6875 4.25 6.6875 4 10 C4.53625 9.67 5.0725 9.34 5.625 9 C8.67193922 7.71707822 10.72032701 7.59004088 14 8 C16.375 9.5625 16.375 9.5625 18 12 C18.6338947 16.35802608 18.49760663 18.26914026 16 21.9375 C15.34 22.618125 14.68 23.29875 14 24 C14.66 24.515625 15.32 25.03125 16 25.5625 C18 28 18 28 18.5625 31.5 C18 35 18 35 15.9375 37.5 C12.15018014 39.43395057 10.06875564 38.99799667 6 38 C5.34 37.67 4.68 37.34 4 37 C4.061875 37.928125 4.12375 38.85625 4.1875 39.8125 C4 43 4 43 2.9375 44.8125 C-0.06485186 46.65265114 -2.5039028 46.93866496 -6 47 C-8.4375 45.4375 -8.4375 45.4375 -10 43 C-10.25 39.75 -10.25 39.75 -10 37 C-10.721875 37.33 -11.44375 37.66 -12.1875 38 C-15.13158986 39.04678751 -16.91635814 39.47440644 -20 39 C-22.3125 37.4375 -22.3125 37.4375 -24 35 C-24.5625 31.5625 -24.5625 31.5625 -24 28 C-21.5 25.0625 -21.5 25.0625 -19 23 C-19.825 22.484375 -20.65 21.96875 -21.5 21.4375 C-24 19 -24 19 -24.5625 15.5 C-24 12 -24 12 -22.375 9.5625 C-19.31889507 7.55190465 -17.59974487 7.55003189 -14 8 C-11.625 9 -11.625 9 -10 10 C-10.0825 8.906875 -10.165 7.81375 -10.25 6.6875 C-10 3 -10 3 -8.375 1.0625 C-5.32437685 -0.30225246 -3.31256176 -0.41407022 0 0 Z " fill="#020202" transform="translate(259,269)"/>
<path d="M0 0 C2.9375 2.125 2.9375 2.125 5 5 C5.06911913 8.93979054 4.60119832 11.12132553 2.375 14.375 C-0.87867447 16.60119832 -3.06020946 17.06911913 -7 17 C-10.32914999 14.61169675 -11.7051139 12.88465831 -13 9 C-13 5.35039425 -12.27633948 3.82580073 -10 1 C-6.61628555 -1.56695579 -3.96674699 -1.2143103 0 0 Z " fill="#85949F" transform="translate(260,448)"/>
<path d="M0 0 C3.95945716 1.7445133 7.28831627 4.32296931 10.75 6.875 C15.65754015 10.44609469 20.42223777 13.54578462 26 16 C22.10999695 18.59333537 18.26170589 21.13708623 13.4543457 20.84570312 C10.3146301 19.76383952 9.69803724 18.65525312 8.10546875 15.78125 C7.62529297 14.93175781 7.14511719 14.08226562 6.65039062 13.20703125 C6.16763672 12.31371094 5.68488281 11.42039062 5.1875 10.5 C4.68541016 9.60667969 4.18332031 8.71335937 3.66601562 7.79296875 C0 1.21907951 0 1.21907951 0 0 Z " fill="#8897A3" transform="translate(44,371)"/>
<path d="M0 0 C2.37715196 1.24603894 4.75169058 2.4966793 7.125 3.75 C7.79015625 4.09804688 8.4553125 4.44609375 9.140625 4.8046875 C13.26946336 6.9905431 17.15716643 9.3423394 21 12 C20.36843005 17.05255964 18.86540627 21.29593201 17 26 C15.58926536 23.88389803 14.18728786 21.76354006 12.79296875 19.63671875 C11.92459429 18.32023655 11.05610066 17.00383296 10.1875 15.6875 C9.76146484 15.03587891 9.33542969 14.38425781 8.89648438 13.71289062 C6.79710424 10.53999992 4.6606957 7.52885388 2.17578125 4.64453125 C0 2 0 2 0 0 Z " fill="#8997A3" transform="translate(371,44)"/>
</svg>
